<?xml version="1.0" encoding="UTF-8"?>
<svg version="1.1" xmlns="http://www.w3.org/2000/svg" width="500" height="500">
<path d="M0 0 C1.99277988 1.76476588 3.95468195 3.54353903 5.8671875 5.39453125 C4.21113863 9.68958888 0.97170444 12.55606167 -2.23486328 15.72363281 C-2.85938385 16.34844543 -3.48390442 16.97325806 -4.12734985 17.61700439 C-6.189569 19.67783194 -8.2587784 21.73148778 -10.328125 23.78515625 C-11.76059797 25.2138985 -13.19262957 26.6430834 -14.62423706 28.07269287 C-18.39112734 31.83195142 -22.16398543 35.58516482 -25.93811035 39.3371582 C-29.78917981 43.16775942 -33.63458521 47.0040372 -37.48046875 50.83984375 C-45.02571184 58.36364503 -52.57727061 65.88107327 -60.1328125 73.39453125 C-63.25798779 71.8927799 -66.01466654 70.11910867 -68.8503418 68.12011719 C-91.50767652 52.30165774 -117.45495016 43.98004149 -145.0703125 44.01953125 C-146.08502625 44.02084549 -146.08502625 44.02084549 -147.12023926 44.02218628 C-183.02068678 44.17470038 -214.14239135 57.9095178 -240.1328125 82.39453125 C-240.79667969 82.99394531 -241.46054688 83.59335938 -242.14453125 84.2109375 C-259.45907631 100.47185913 -269.91240334 122.82281262 -276.1328125 145.39453125 C-276.32488281 146.08095703 -276.51695312 146.76738281 -276.71484375 147.47460938 C-282.16613905 168.09382173 -280.9077978 193.02166646 -275.1328125 213.39453125 C-274.92914063 214.14412109 -274.72546875 214.89371094 -274.515625 215.66601562 C-268.39663245 237.66794871 -256.70239309 255.86768893 -241.1328125 272.39453125 C-240.53339844 273.05839844 -239.93398437 273.72226562 -239.31640625 274.40625 C-223.0461724 291.73071067 -200.70740015 302.15069059 -178.1328125 308.39453125 C-177.45702148 308.58660156 -176.78123047 308.77867187 -176.08496094 308.9765625 C-155.97419714 314.400155 -130.21763248 313.32275097 -110.1328125 308.39453125 C-109.41738281 308.23355957 -108.70195312 308.07258789 -107.96484375 307.90673828 C-80.4824716 301.66564984 -54.59259001 286.40890536 -39.1328125 262.39453125 C-32.2293701 250.96903317 -27.37284511 239.3546617 -24.1328125 226.39453125 C-84.5228125 225.89953125 -84.5228125 225.89953125 -146.1328125 225.39453125 C-146.1328125 195.69453125 -146.1328125 165.99453125 -146.1328125 135.39453125 C-75.1828125 135.39453125 -4.2328125 135.39453125 68.8671875 135.39453125 C79.89820383 198.82287517 70.25738516 264.74879193 32.8671875 318.39453125 C26.21770652 327.66102219 18.73195272 336.1503256 10.8671875 344.39453125 C10.06796875 345.24660156 9.26875 346.09867187 8.4453125 346.9765625 C-27.46582702 384.23730367 -82.50053598 406.42881519 -133.92196655 407.56358337 C-201.54452129 408.66204528 -259.90930282 386.97365996 -309.1328125 340.39453125 C-309.8134375 339.75644531 -310.4940625 339.11835938 -311.1953125 338.4609375 C-316.32198429 333.51227514 -320.70801204 327.9673095 -325.1328125 322.39453125 C-326.32583984 320.92693359 -326.32583984 320.92693359 -327.54296875 319.4296875 C-334.58489858 310.57984542 -340.48296911 301.18294305 -346.1328125 291.39453125 C-346.53387207 290.70375488 -346.93493164 290.01297852 -347.34814453 289.30126953 C-377.59755016 236.58377831 -382.41724461 172.27087732 -366.91796875 114.2421875 C-351.4893785 58.28476315 -313.32175948 8.59010687 -262.984375 -20.42578125 C-261.70110783 -21.15338001 -260.41724803 -21.8799345 -259.1328125 -22.60546875 C-258.49182617 -22.97381836 -257.85083984 -23.34216797 -257.19042969 -23.72167969 C-177.45533685 -69.25638105 -72.20927754 -59.03212846 0 0 Z " fill="#34A853" transform="translate(401.1328125,73.60546875)"/>
<path d="M0 0 C1.99277988 1.76476588 3.95468195 3.54353903 5.8671875 5.39453125 C4.21113863 9.68958888 0.97170444 12.55606167 -2.23486328 15.72363281 C-2.85938385 16.34844543 -3.48390442 16.97325806 -4.12734985 17.61700439 C-6.189569 19.67783194 -8.2587784 21.73148778 -10.328125 23.78515625 C-11.76059797 25.2138985 -13.19262957 26.6430834 -14.62423706 28.07269287 C-18.39112734 31.83195142 -22.16398543 35.58516482 -25.93811035 39.3371582 C-29.78917981 43.16775942 -33.63458521 47.0040372 -37.48046875 50.83984375 C-45.02571184 58.36364503 -52.57727061 65.88107327 -60.1328125 73.39453125 C-63.25798779 71.8927799 -66.01466654 70.11910867 -68.8503418 68.12011719 C-91.50767652 52.30165774 -117.45495016 43.98004149 -145.0703125 44.01953125 C-146.08502625 44.02084549 -146.08502625 44.02084549 -147.12023926 44.02218628 C-183.02068678 44.17470038 -214.14239135 57.9095178 -240.1328125 82.39453125 C-240.79667969 82.99394531 -241.46054688 83.59335938 -242.14453125 84.2109375 C-259.45907631 100.47185913 -269.91240334 122.82281262 -276.1328125 145.39453125 C-276.32488281 146.08095703 -276.51695312 146.76738281 -276.71484375 147.47460938 C-282.04130257 167.6216349 -280.70235715 191.43909374 -275.59033203 211.44140625 C-274.89606551 214.40519077 -274.51020495 217.37539161 -274.1328125 220.39453125 C-275.4940625 221.26078125 -275.4940625 221.26078125 -276.8828125 222.14453125 C-280.03411974 224.1771293 -280.03411974 224.1771293 -281.99609375 226.28515625 C-284.36205826 228.62084333 -286.86065777 230.47033815 -289.5703125 232.39453125 C-292.40555646 234.41350887 -295.17169312 236.42666215 -297.85546875 238.64453125 C-300.1328125 240.39453125 -300.1328125 240.39453125 -302.1328125 240.39453125 C-302.4628125 241.38453125 -302.7928125 242.37453125 -303.1328125 243.39453125 C-304.51585692 244.37278218 -305.90800473 245.34062984 -307.3425293 246.24169922 C-309.24497101 247.46675442 -311.03637723 248.7859483 -312.83984375 250.15234375 C-313.8911145 250.94620483 -313.8911145 250.94620483 -314.96362305 251.75610352 C-315.67945557 252.29678467 -316.39528809 252.83746582 -317.1328125 253.39453125 C-318.48884674 254.40723706 -319.84560663 255.41897201 -321.203125 256.4296875 C-322.20666016 257.17895508 -322.20666016 257.17895508 -323.23046875 257.94335938 C-324.58892063 258.95761777 -325.94830606 259.97062694 -327.30859375 260.98242188 C-330.45093355 263.33157919 -333.52690701 265.70451003 -336.5 268.265625 C-339.1328125 270.39453125 -339.1328125 270.39453125 -341.1328125 270.39453125 C-341.1328125 271.05453125 -341.1328125 271.71453125 -341.1328125 272.39453125 C-346.54457721 276.39453125 -346.54457721 276.39453125 -349.1328125 276.39453125 C-349.1328125 277.05453125 -349.1328125 277.71453125 -349.1328125 278.39453125 C-349.7928125 278.39453125 -350.4528125 278.39453125 -351.1328125 278.39453125 C-351.4628125 279.05453125 -351.7928125 279.71453125 -352.1328125 280.39453125 C-361.01492826 260.44092049 -368.0118834 240.88491377 -372.1328125 219.39453125 C-372.29942383 218.52860352 -372.46603516 217.66267578 -372.63769531 216.77050781 C-383.07281734 159.5393727 -369.56125248 96.51846716 -336.61425781 48.64990234 C-315.98182625 19.34558541 -290.38497407 -4.95217809 -259.1328125 -22.60546875 C-258.49182617 -22.97381836 -257.85083984 -23.34216797 -257.19042969 -23.72167969 C-177.45533685 -69.25638105 -72.20927754 -59.03212846 0 0 Z " fill="#E94235" transform="translate(401.1328125,73.60546875)"/>
<path d="M0 0 C70.95 0 141.9 0 215 0 C226.03101633 63.42834392 216.39019766 129.35426068 179 183 C170.43239629 194.93952167 160.49682507 205.73643771 150 216 C149.278125 215.236875 148.55625 214.47375 147.8125 213.6875 C145.17328038 210.96204048 145.17328038 210.96204048 142.25 209.375 C140 208 140 208 139 205 C137.6748445 204.6355116 136.33973992 204.30657112 135 204 C133.11328125 202.66015625 133.11328125 202.66015625 131.3125 201.0625 C130.71050781 200.53785156 130.10851562 200.01320313 129.48828125 199.47265625 C128 198 128 198 127 196 C126.319375 195.7525 125.63875 195.505 124.9375 195.25 C121.49796166 193.78636666 118.93106684 191.79438422 115.984375 189.5234375 C112.59388222 186.92050013 109.36669297 184.47675336 105.3125 183.0625 C102.24187249 181.65167115 101.62929074 179.9191459 100 177 C96.69068151 173.12336977 93.521305 171.14775338 89.00390625 169.0390625 C85.88357012 167.42111043 83.54644549 165.41912321 81 163 C81 162.34 81 161.68 81 161 C80.401875 160.87625 79.80375 160.7525 79.1875 160.625 C77 160 77 160 74 158 C74.64324219 157.63390625 75.28648437 157.2678125 75.94921875 156.890625 C99.13192371 143.00084457 113.68837545 120.68860945 121 95 C121.495 93.02 121.495 93.02 122 91 C61.61 90.505 61.61 90.505 0 90 C0 60.3 0 30.6 0 0 Z " fill="#4286F4" transform="translate(255,209)"/>
<path d="M0 0 C5.44398341 4.05630136 10.83747085 8.17479935 16.21289062 12.32128906 C19.1871011 14.61326194 22.17264917 16.88679431 25.1875 19.125 C28.97331497 21.94642842 32.64531272 24.90160491 36.3125 27.875 C39.82461221 30.65201896 43.40929704 33.32578759 47 36 C49.62575029 37.95733039 52.25105441 39.9152507 54.875 41.875 C55.56899902 42.39312256 56.26299805 42.91124512 56.97802734 43.44506836 C61.68263469 46.97215657 66.28436401 50.59788676 70.7890625 54.37890625 C73.38386716 56.28145737 76.09433855 57.63042605 79 59 C78.78065796 59.89924194 78.78065796 59.89924194 78.55688477 60.81665039 C77.88868682 63.56445211 77.22555896 66.3134539 76.5625 69.0625 C76.33240234 70.00544922 76.10230469 70.94839844 75.86523438 71.91992188 C75.64287109 72.84482422 75.42050781 73.76972656 75.19140625 74.72265625 C74.98717041 75.56578369 74.78293457 76.40891113 74.57250977 77.27758789 C72.86409707 85.40147273 72.72084322 93.41936629 72.6875 101.6875 C72.68388458 102.37408691 72.68026917 103.06067383 72.67654419 103.76806641 C72.65309074 114.87303234 73.78866362 125.27175087 76.54248047 136.046875 C77.23674699 139.01065952 77.62260755 141.98086036 78 145 C77.0925 145.5775 76.185 146.155 75.25 146.75 C72.09869276 148.78259805 72.09869276 148.78259805 70.13671875 150.890625 C67.77075424 153.22631208 65.27215473 155.0758069 62.5625 157 C59.72725604 159.01897762 56.96111938 161.0321309 54.27734375 163.25 C52 165 52 165 50 165 C49.67 165.99 49.34 166.98 49 168 C47.61695558 168.97825093 46.22480777 169.94609859 44.7902832 170.84716797 C42.88784149 172.07222317 41.09643527 173.39141705 39.29296875 174.7578125 C38.241698 175.55167358 38.241698 175.55167358 37.16918945 176.36157227 C36.45335693 176.90225342 35.73752441 177.44293457 35 178 C33.64396576 179.01270581 32.28720587 180.02444076 30.9296875 181.03515625 C29.92615234 181.78442383 29.92615234 181.78442383 28.90234375 182.54882812 C27.54389187 183.56308652 26.18450644 184.57609569 24.82421875 185.58789062 C21.68187895 187.93704794 18.60590549 190.30997878 15.6328125 192.87109375 C13 195 13 195 11 195 C11 195.66 11 196.32 11 197 C5.58823529 201 5.58823529 201 3 201 C3 201.66 3 202.32 3 203 C2.34 203 1.68 203 1 203 C0.67 203.66 0.34 204.32 0 205 C-8.88211576 185.04638924 -15.8790709 165.49038252 -20 144 C-20.16661133 143.13407227 -20.33322266 142.26814453 -20.50488281 141.37597656 C-29.24892562 93.41951816 -20.3939514 43.79005807 0 0 Z " fill="#F9BC06" transform="translate(49,149)"/>
<path d="M0 0 C70.95 0 141.9 0 215 0 C215.99 6.435 215.99 6.435 217 13 C216.34 13 215.68 13 215 13 C214.87882813 12.36191406 214.75765625 11.72382813 214.6328125 11.06640625 C214.46523438 10.24011719 214.29765625 9.41382813 214.125 8.5625 C213.96257812 7.73878906 213.80015625 6.91507813 213.6328125 6.06640625 C213.31957031 5.04353516 213.31957031 5.04353516 213 4 C209.80412719 2.4020636 206.33596985 2.84603494 202.82504272 2.84178162 C201.96987143 2.83684364 201.11470014 2.83190566 200.23361456 2.82681805 C197.35154586 2.8113894 194.46949952 2.80306795 191.58740234 2.79467773 C189.5280182 2.78510342 187.46863604 2.77509361 185.40925598 2.76467896 C179.80419392 2.73757537 174.19912339 2.71659539 168.59403181 2.69667697 C162.74167801 2.67485098 156.88935046 2.64744576 151.03701782 2.62062073 C139.94835941 2.57064793 128.85968646 2.52572615 117.77099955 2.48259836 C105.14965238 2.43326513 92.52833155 2.37833252 79.90700984 2.32291877 C53.93802989 2.20902832 27.9690258 2.10294398 2 2 C2 30.38 2 58.76 2 88 C10.72308594 87.98839844 19.44617188 87.97679687 28.43359375 87.96484375 C34.6434835 87.95908836 40.85337126 87.95396144 47.06326199 87.94974613 C55.11810835 87.9441943 63.17294441 87.93713456 71.2277832 87.92456055 C77.60283018 87.91461349 83.97786941 87.90814652 90.35292393 87.90591151 C93.73048014 87.90460443 97.10801416 87.90151881 100.48556328 87.89426994 C104.25007343 87.88706387 108.01453685 87.88600887 111.77905273 87.88647461 C112.90689682 87.88287933 114.03474091 87.87928406 115.19676208 87.87557983 C116.21624939 87.8769545 117.23573669 87.87832916 118.28611755 87.87974548 C119.17749137 87.87882369 120.06886518 87.8779019 120.98725033 87.87695217 C123 88 123 88 124 89 C124.04063832 90.66617115 124.042721 92.33388095 124 94 C123.34 94 122.68 94 122 94 C122 93.01 122 92.02 122 91 C61.61 90.505 61.61 90.505 0 90 C0 60.3 0 30.6 0 0 Z " fill="#739FE2" transform="translate(255,209)"/>
<path d="M0 0 C0.33 0 0.66 0 1 0 C4.96484365 28.99291922 2.55209447 57.35862766 -3 86 C-3.33 86 -3.66 86 -4 86 C-4 78.74 -4 71.48 -4 64 C-3.01 64 -2.02 64 -1 64 C-1.01160156 63.18015625 -1.02320313 62.3603125 -1.03515625 61.515625 C-1.04417969 60.43796875 -1.05320312 59.3603125 -1.0625 58.25 C-1.07410156 57.18265625 -1.08570313 56.1153125 -1.09765625 55.015625 C-1 52 -1 52 -0.50219727 50.30395508 C0.23421111 46.92549817 0.14232335 43.5618219 0.1328125 40.12109375 C0.13376923 39.35378433 0.13472595 38.58647491 0.13571167 37.7959137 C0.1363914 36.17115192 0.13455157 34.5463874 0.13037109 32.92163086 C0.1250713 30.47047581 0.13029631 28.01950835 0.13671875 25.56835938 C0.1388547 17.94235001 0.04584691 10.43892062 -0.88330078 2.85571289 C-0.92181152 2.24332764 -0.96032227 1.63094238 -1 1 C-0.67 0.67 -0.34 0.34 0 0 Z " fill="#6796DC" transform="translate(472,225)"/>
<path d="M0 0 C0.99 0.66 1.98 1.32 3 2 C1.39626852 6.00517396 -1.42113986 8.6771098 -4.4453125 11.640625 C-4.97518768 12.16767029 -5.50506287 12.69471558 -6.05099487 13.23773193 C-7.73767825 14.91325675 -9.43119564 16.58167722 -11.125 18.25 C-12.27259388 19.38755851 -13.41973461 20.52557436 -14.56640625 21.6640625 C-17.37238137 24.44803465 -20.18450464 27.2256576 -23 30 C-24 27 -24 27 -23.0625 24.8125 C-22.5365625 23.9153125 -22.5365625 23.9153125 -22 23 C-20.68 23 -19.36 23 -18 23 C-18 20.69 -18 18.38 -18 16 C-17.67 16.66 -17.34 17.32 -17 18 C-16.34 18 -15.68 18 -15 18 C-14.34 16.35 -13.68 14.7 -13 13 C-11.35 13 -9.7 13 -8 13 C-7.67 11.68 -7.34 10.36 -7 9 C-6.01 9 -5.02 9 -4 9 C-4 7.35 -4 5.7 -4 4 C-2.68 4.33 -1.36 4.66 0 5 C0 3.35 0 1.7 0 0 Z " fill="#E56F67" transform="translate(404,77)"/>
<path d="M0 0 C0.66 0.99 1.32 1.98 2 3 C1.67 3.99 1.34 4.98 1 6 C0.01 6 -0.98 6 -2 6 C-2 6.66 -2 7.32 -2 8 C-2.99 8 -3.98 8 -5 8 C-5.17015625 8.60328125 -5.3403125 9.2065625 -5.515625 9.828125 C-6.96721074 14.61526947 -8.14685279 17.64403307 -12 21 C-12.350625 21.721875 -12.70125 22.44375 -13.0625 23.1875 C-14 25 -14 25 -17 26 C-16.67 27.32 -16.34 28.64 -16 30 C-16.5775 30.12375 -17.155 30.2475 -17.75 30.375 C-20.02612206 31.00725613 -21.90760206 31.91863468 -24 33 C-16.85527432 21.32951561 -8.61703186 10.61280218 0 0 Z " fill="#E05A4F" transform="translate(84,97)"/>
<path d="M0 0 C1.68880076 0.00502523 3.37760296 0.00958632 5.06640625 0.01367188 C9.16930711 0.02459601 13.27213727 0.0418042 17.375 0.0625 C17.375 0.3925 17.375 0.7225 17.375 1.0625 C16.42133545 1.08755615 15.4676709 1.1126123 14.48510742 1.13842773 C10.94590893 1.23262071 7.40690125 1.33281231 3.86791992 1.43481445 C2.33638982 1.47811833 0.80481285 1.51979667 -0.72680664 1.55981445 C-2.92869182 1.61762732 -5.13034211 1.68128969 -7.33203125 1.74609375 C-8.01650833 1.76280624 -8.70098541 1.77951874 -9.40620422 1.79673767 C-12.39620104 1.8898555 -14.76562311 2.10937437 -17.625 3.0625 C-20.01859279 3.2413806 -22.41512601 3.3821752 -24.8125 3.5 C-30.93801313 3.8423034 -30.93801313 3.8423034 -36.9375 5.0625 C-41.48086034 6.29459772 -45.94404656 6.69799953 -50.625 7.0625 C-50.955 6.4025 -51.285 5.7425 -51.625 5.0625 C-48.00108435 4.41048517 -44.3756933 3.76704985 -40.75 3.125 C-39.73679688 2.94259766 -38.72359375 2.76019531 -37.6796875 2.57226562 C-25.01127185 0.33905133 -12.8305839 -0.0666818 0 0 Z " fill="#DB6155" transform="translate(255.625,21.9375)"/>
<path d="M0 0 C0.33 0 0.66 0 1 0 C0.85739034 2.50022037 0.71098536 5.0001271 0.5625 7.5 C0.52318359 8.19609375 0.48386719 8.8921875 0.44335938 9.609375 C0.24167981 12.96035862 -0.03245978 16.2180816 -0.52734375 19.54296875 C-1.31810185 25.55391386 -1.1486008 31.6317891 -1.13037109 37.68334961 C-1.12496903 39.8247776 -1.13036366 41.96599992 -1.13671875 44.10742188 C-1.13605866 45.47395879 -1.13477893 46.84049559 -1.1328125 48.20703125 C-1.13168457 49.4391333 -1.13055664 50.67123535 -1.12939453 51.94067383 C-1.13911323 55.04242109 -1.13911323 55.04242109 0 58 C0.0806622 59.48123547 0.10761193 60.96582204 0.09765625 62.44921875 C0.09443359 63.29677734 0.09121094 64.14433594 0.08789062 65.01757812 C0.07951172 65.89865234 0.07113281 66.77972656 0.0625 67.6875 C0.05798828 68.58017578 0.05347656 69.47285156 0.04882812 70.39257812 C0.03704983 72.59511987 0.02060164 74.79752599 0 77 C-0.33 77 -0.66 77 -1 77 C-2.62643649 65.24906618 -3.36203089 53.73439833 -3.3125 41.875 C-3.31233887 41.0784903 -3.31217773 40.28198059 -3.31201172 39.46133423 C-3.29333484 26.12520628 -2.31377092 13.15268588 0 0 Z " fill="#EFC444" transform="translate(29,210)"/>
<path d="M0 0 C2.9396294 3.63020901 5.07602858 7.60791831 7.3125 11.6875 C10.61705716 17.64882103 14.05609582 23.43213527 18 29 C15.36063104 28.63575588 14.28541889 28.36789121 12.62109375 26.22265625 C12.03521484 25.15337891 12.03521484 25.15337891 11.4375 24.0625 C9.74561513 21.00601291 9.02489546 20.01659697 6 18 C5.12109375 16.08984375 5.12109375 16.08984375 4.4375 13.9375 C3.79447564 11.81992279 3.79447564 11.81992279 3 10 C2.34 9.67 1.68 9.34 1 9 C1 7.02 1 5.04 1 3 C0.34 3 -0.32 3 -1 3 C-0.67 2.01 -0.34 1.02 0 0 Z " fill="#5AB074" transform="translate(132,307)"/>
<path d="M0 0 C-3.63423209 2.32590854 -6.77088331 2.16265833 -11 2 C-11 2.66 -11 3.32 -11 4 C-14.78213135 5.24810335 -18.46799294 5.03501717 -22.390625 4.87890625 C-23.09523865 4.85529526 -23.79985229 4.83168427 -24.52581787 4.80735779 C-26.7674328 4.73103023 -29.00867496 4.64687421 -31.25 4.5625 C-32.7734195 4.5092483 -34.29685698 4.45650812 -35.8203125 4.40429688 C-39.54710155 4.27545752 -43.27359667 4.13959768 -47 4 C-47 3.67 -47 3.34 -47 3 C-46.33693848 2.98541748 -45.67387695 2.97083496 -44.99072266 2.95581055 C-33.01702423 2.66313853 -21.25142153 2.31386195 -9.48486328 -0.0715332 C-6.03734544 -0.75748092 -3.34477395 -1.28975859 0 0 Z " fill="#70BE86" transform="translate(295,383)"/>
<path d="M0 0 C5.31150283 0.88525047 8.59885338 2.1370272 11.9375 6.4375 C14.37373719 9.41375954 16.66088517 11.06682825 20 13 C22.3125 15.6875 22.3125 15.6875 24 18 C18.08188218 15.26856101 13.00850845 11.29791333 7.9296875 7.26953125 C6.06474067 5.88544561 6.06474067 5.88544561 3.8359375 5.484375 C2.92714844 5.24460937 2.92714844 5.24460937 2 5 C0.75 2.4375 0.75 2.4375 0 0 Z " fill="#3C90BF" transform="translate(356,386)"/>
<path d="M0 0 C2.9707191 1.38234804 5.46949026 3.00153392 8.0625 5 C10.34345464 6.75121278 12.60386777 8.40257851 15 10 C14.1875 12.9375 14.1875 12.9375 13 16 C12.01 16.33 11.02 16.66 10 17 C9.01 13.7 8.02 10.4 7 7 C5.35 7 3.7 7 2 7 C2.33 6.01 2.66 5.02 3 4 C2.01 3.34 1.02 2.68 0 2 C0 1.34 0 0.68 0 0 Z " fill="#F5B921" transform="translate(113,199)"/>
<path d="M0 0 C9.10544621 2.29824964 17.4768311 6.1402523 26 10 C26 10.33 26 10.66 26 11 C19.375 10.25 19.375 10.25 16 8 C13.71351152 7.75892674 13.71351152 7.75892674 11.3125 7.875 C10.10013672 7.90207031 10.10013672 7.90207031 8.86328125 7.9296875 C8.24839844 7.95289063 7.63351562 7.97609375 7 8 C7 7.34 7 6.68 7 6 C6.34 5.67 5.68 5.34 5 5 C3.31337542 3.35353315 1.64488294 1.68816933 0 0 Z " fill="#DC6C62" transform="translate(329,34)"/>
<path d="M0 0 C0.99 0.66 1.98 1.32 3 2 C2.34 3.32 1.68 4.64 1 6 C0.34 6 -0.32 6 -1 6 C-1 6.66 -1 7.32 -1 8 C0.32 8.33 1.64 8.66 3 9 C2.67 9.66 2.34 10.32 2 11 C1.01 11 0.02 11 -1 11 C-1.226875 11.94875 -1.45375 12.8975 -1.6875 13.875 C-2.120625 14.90625 -2.55375 15.9375 -3 17 C-4.65 17.66 -6.3 18.32 -8 19 C-5.36 12.73 -2.72 6.46 0 0 Z " fill="#6197E8" transform="translate(374,311)"/>
<path d="M0 0 C0.66 0.33 1.32 0.66 2 1 C-1.31014556 5.55145015 -4.02355048 7.76546995 -9.140625 10.0546875 C-11.55407347 11.28169282 -13.13504867 13.06597639 -15 15 C-15.99 15 -16.98 15 -18 15 C-18 15.99 -18 16.98 -18 18 C-19.32 17.67 -20.64 17.34 -22 17 C-17.97475803 13.77062336 -13.92954989 10.56742454 -9.875 7.375 C-9.25496094 6.88515625 -8.63492188 6.3953125 -7.99609375 5.890625 C-7.39667969 5.41882813 -6.79726562 4.94703125 -6.1796875 4.4609375 C-5.37120361 3.82357666 -5.37120361 3.82357666 -4.54638672 3.17333984 C-3.07411102 2.05623265 -1.53772354 1.02514903 0 0 Z " fill="#60A63B" transform="translate(118,300)"/>
<path d="M0 0 C2.62201165 1.31100583 2.86500715 2.30439197 4 5 C5.34943909 9.12328612 6.26346736 12.65278863 6 17 C6.66 17 7.32 17 8 17 C9.66554027 22.30039859 11.27275406 27.47293087 12 33 C9.88041477 29.82062215 8.51698706 26.59335084 7.125 23.0625 C6.73127197 22.06911621 6.73127197 22.06911621 6.32958984 21.05566406 C0 4.91230648 0 4.91230648 0 0 Z " fill="#F2C546" transform="translate(35,315)"/>
<path d="M0 0 C1.18719263 4.36503148 0.67009018 7.53273214 0 12 C-0.66 12 -1.32 12 -2 12 C-2 14.97 -2 17.94 -2 21 C-2.66 21 -3.32 21 -4 21 C-4.04898438 21.63808594 -4.09796875 22.27617187 -4.1484375 22.93359375 C-4.22320312 23.75988281 -4.29796875 24.58617187 -4.375 25.4375 C-4.47941406 26.67306641 -4.47941406 26.67306641 -4.5859375 27.93359375 C-4.72257812 28.61550781 -4.85921875 29.29742187 -5 30 C-5.66 30.33 -6.32 30.66 -7 31 C-6.41664564 23.85944731 -4.89994809 17.31745142 -2.9375 10.4375 C-2.65583984 9.42880859 -2.37417969 8.42011719 -2.08398438 7.38085938 C-1.39552851 4.91875452 -0.70077279 2.45862184 0 0 Z " fill="#F2C33A" transform="translate(37,178)"/>
<path d="M0 0 C2 3 2 3 2 6 C0.68 6 -0.64 6 -2 6 C-2.33 6.99 -2.66 7.98 -3 9 C-3.7425 9.433125 -4.485 9.86625 -5.25 10.3125 C-8.70457742 12.43235433 -10.5198809 14.81127544 -13 18 C-14.32 17.34 -15.64 16.68 -17 16 C-16.27554687 15.43152344 -15.55109375 14.86304688 -14.8046875 14.27734375 C-9.27465207 9.86068879 -4.38001874 5.56380759 0 0 Z " fill="#5589DA" transform="translate(354,346)"/>
<path d="M0 0 C4.91441412 1.43652105 9.00238358 3.54159615 13.375 6.125 C14.01566406 6.49753906 14.65632813 6.87007812 15.31640625 7.25390625 C16.88048477 8.16434002 18.44065534 9.08148191 20 10 C17.92446352 10.5534764 16.15634036 11 14 11 C14 10.34 14 9.68 14 9 C13.01 9.33 12.02 9.66 11 10 C11 9.34 11 8.68 11 8 C8.03 7.505 8.03 7.505 5 7 C4.67 6.01 4.34 5.02 4 4 C1.99983534 2.79117904 1.99983534 2.79117904 0 2 C0 1.34 0 0.68 0 0 Z " fill="#E05A55" transform="translate(357,46)"/>
<path d="M0 0 C3.77693016 2.18882424 7.29573979 4.6028931 10.8125 7.1875 C11.78832031 7.90292969 12.76414063 8.61835938 13.76953125 9.35546875 C14.50558594 9.89816406 15.24164063 10.44085938 16 11 C14.140625 11.62109375 14.140625 11.62109375 12 12 C9.75 10.0625 9.75 10.0625 8 8 C6.35 8.66 4.7 9.32 3 10 C2.87625 9.278125 2.7525 8.55625 2.625 7.8125 C2.0095069 5.04278106 1.11555626 2.6029646 0 0 Z " fill="#47A764" transform="translate(167,354)"/>
<path d="M0 0 C-2.93036877 1.37000201 -5.87026914 2.71818552 -8.8125 4.0625 C-9.64587891 4.45244141 -10.47925781 4.84238281 -11.33789062 5.24414062 C-12.14033203 5.60830078 -12.94277344 5.97246094 -13.76953125 6.34765625 C-14.50792236 6.68804932 -15.24631348 7.02844238 -16.00708008 7.37915039 C-18 8 -18 8 -21 7 C-20.67 6.34 -20.34 5.68 -20 5 C-18.35 5 -16.7 5 -15 5 C-14.67 4.01 -14.34 3.02 -14 2 C-11.85546875 1.015625 -11.85546875 1.015625 -9.1875 0.25 C-8.31480469 -0.01296875 -7.44210937 -0.2759375 -6.54296875 -0.546875 C-3.90370258 -1.01715899 -2.52732481 -0.72525274 0 0 Z " fill="#54AD6D" transform="translate(357,458)"/>
<path d="M0 0 C6.28199181 3.27756095 11.55515231 7.48636368 17 12 C16.01 12.495 16.01 12.495 15 13 C14.01 12.34 13.02 11.68 12 11 C8.36060068 11.31730524 8.36060068 11.31730524 5 12 C5.33 10.02 5.66 8.04 6 6 C5.01 5.38125 4.02 4.7625 3 4.125 C2.01 3.42375 1.02 2.7225 0 2 C0 1.34 0 0.68 0 0 Z " fill="#FBB118" transform="translate(96,186)"/>
<path d="M0 0 C4.70333033 0.28505032 6.96499475 2.47099082 10.28515625 5.5078125 C12.10442582 7.1801839 12.10442582 7.1801839 14.9375 8.75 C15.618125 9.1625 16.29875 9.575 17 10 C17 10.66 17 11.32 17 12 C17.99 12 18.98 12 20 12 C19.67 12.99 19.34 13.98 19 15 C18.34 14.2575 17.68 13.515 17 12.75 C14.30476735 10.03186169 11.44416043 8.64232791 8.00390625 7.04296875 C4.90924907 5.43229922 2.55644713 3.3647136 0 1 C0 0.67 0 0.34 0 0 Z " fill="#3C8FC3" transform="translate(336,371)"/>
<path d="M0 0 C0.69670416 1.78810766 1.38211189 3.58062052 2.0625 5.375 C2.44535156 6.37273437 2.82820312 7.37046875 3.22265625 8.3984375 C4 11 4 11 3 13 C-0.93846154 9.67692308 -0.93846154 9.67692308 -1.25 6.25 C-1.1675 5.5075 -1.085 4.765 -1 4 C-3.31 4.33 -5.62 4.66 -8 5 C-3.22727273 0 -3.22727273 0 0 0 Z " fill="#5CB171" transform="translate(128,294)"/>
<path d="M0 0 C-0.46569122 7.8187104 -1.22458462 15.36399015 -3 23 C-3.33 23 -3.66 23 -4 23 C-4 15.74 -4 8.48 -4 1 C-1 0 -1 0 0 0 Z " fill="#5C8FE2" transform="translate(472,288)"/>
<path d="M0 0 C5.75 0.75 5.75 0.75 8 3 C8.33 2.34 8.66 1.68 9 1 C9.99 1.66 10.98 2.32 12 3 C11.34 3 10.68 3 10 3 C10.99 4.98 11.98 6.96 13 9 C12.01 9.495 12.01 9.495 11 10 C9.35063952 8.71284028 7.70560953 7.42012981 6.0625 6.125 C5.14597656 5.40570313 4.22945313 4.68640625 3.28515625 3.9453125 C1 2 1 2 0 0 Z " fill="#4CAD66" transform="translate(104,424)"/>
<path d="M0 0 C0.66 0.33 1.32 0.66 2 1 C0.625 2.5 0.625 2.5 -1 4 C-1.66 4 -2.32 4 -3 4 C-3 4.99 -3 5.98 -3 7 C-6 9 -6 9 -9 9 C-9.226875 9.639375 -9.45375 10.27875 -9.6875 10.9375 C-11 13 -11 13 -13.625 13.75 C-14.40875 13.8325 -15.1925 13.915 -16 14 C-11.65208747 8.00287927 -6.05706051 4.17947783 0 0 Z " fill="#67A83A" transform="translate(81,328)"/>
<path d="M0 0 C0.66 0 1.32 0 2 0 C2.22786458 2.05078125 2.45572917 4.1015625 2.68359375 6.15234375 C2.81886614 8.01140229 2.81886614 8.01140229 4 9 C4.40190029 10.88629113 4.74657353 12.78492056 5.0625 14.6875 C5.23910156 15.72261719 5.41570313 16.75773437 5.59765625 17.82421875 C5.99014566 20.92221769 6.07013684 23.88124863 6 27 C4.55501021 24.30472732 3.59758076 21.82920025 2.9296875 18.84765625 C2.75566406 18.07099609 2.58164062 17.29433594 2.40234375 16.49414062 C2.14130859 15.29047852 2.14130859 15.29047852 1.875 14.0625 C1.69324219 13.26392578 1.51148437 12.46535156 1.32421875 11.64257812 C0.45532536 7.69989272 -0.24634709 4.06472692 0 0 Z " fill="#F1C53D" transform="translate(29,288)"/>
<path d="M0 0 C0.33 0.66 0.66 1.32 1 2 C0.67 2.66 0.34 3.32 0 4 C0.66 4 1.32 4 2 4 C2 4.66 2 5.32 2 6 C-3 4.33333333 -8 2.66666667 -13 1 C-13 0.67 -13 0.34 -13 0 C-11.20909747 -0.19466332 -9.41723495 -0.38051213 -7.625 -0.5625 C-6.12839844 -0.71912109 -6.12839844 -0.71912109 -4.6015625 -0.87890625 C-2 -1 -2 -1 0 0 Z " fill="#E65048" transform="translate(310,123)"/>
<path d="M0 0 C2.31 1.65 4.62 3.3 7 5 C4 6 4 6 1.8125 5.0625 C1.214375 4.711875 0.61625 4.36125 0 4 C0 4.99 0 5.98 0 7 C0.66 7 1.32 7 2 7 C2 7.66 2 8.32 2 9 C1.01 9.33 0.02 9.66 -1 10 C-1.66 10.66 -2.32 11.32 -3 12 C-4.21386936 8.35839192 -3.6674695 7.66834531 -2.0625 4.3125 C-1.49208984 3.10013672 -1.49208984 3.10013672 -0.91015625 1.86328125 C-0.60980469 1.24839844 -0.30945312 0.63351563 0 0 Z " fill="#F6BB3B" transform="translate(49,149)"/>
<path d="M0 0 C-0.66 1.65 -1.32 3.3 -2 5 C-2.66 4.67 -3.32 4.34 -4 4 C-6.21138855 4.08811445 -8.42042185 4.2429784 -10.625 4.4375 C-11.81351563 4.53933594 -13.00203125 4.64117187 -14.2265625 4.74609375 C-15.59941406 4.87177734 -15.59941406 4.87177734 -17 5 C-13.97546033 2.98364022 -11.36924652 1.96753498 -7.9375 0.8125 C-6.87402344 0.44769531 -5.81054688 0.08289062 -4.71484375 -0.29296875 C-2 -1 -2 -1 0 0 Z " fill="#E5524B" transform="translate(188,33)"/>
<path d="M0 0 C5.94 0 11.88 0 18 0 C21 8.625 21 8.625 21 12 C20.34 12 19.68 12 19 12 C18.87882812 11.36191406 18.75765625 10.72382813 18.6328125 10.06640625 C18.46523438 9.24011719 18.29765625 8.41382813 18.125 7.5625 C17.96257812 6.73878906 17.80015625 5.91507813 17.6328125 5.06640625 C17.42398437 4.38449219 17.21515625 3.70257813 17 3 C13.95786733 1.47893366 10.71952428 1.62570662 7.375 1.4375 C6.66859375 1.39431641 5.9621875 1.35113281 5.234375 1.30664062 C3.48981463 1.20055249 1.74493303 1.09977111 0 1 C0 0.67 0 0.34 0 0 Z " fill="#598BDA" transform="translate(451,210)"/>
<path d="M0 0 C0.66 0.33 1.32 0.66 2 1 C-0.625 5.875 -0.625 5.875 -4 7 C-3.505 7.37125 -3.01 7.7425 -2.5 8.125 C-0.40244486 10.74694393 -0.78256165 12.73842472 -1 16 C-3.34191563 13.8709858 -4.83554954 11.95591271 -6 9 C-6 7.68 -6 6.36 -6 5 C-5.34 5 -4.68 5 -4 5 C-4 4.34 -4 3.68 -4 3 C-2 1.375 -2 1.375 0 0 Z " fill="#6AB05F" transform="translate(56,347)"/>
<path d="M0 0 C4.13621084 3.3810038 7.81316569 6.66590534 11 11 C7 11 7 11 5.5 9.75 C4.7575 8.88375 4.7575 8.88375 4 8 C3.278125 7.360625 2.55625 6.72125 1.8125 6.0625 C0 4 0 4 0 0 Z " fill="#57AE71" transform="translate(156,343)"/>
<path d="M0 0 C1.37376517 4.12129552 0.65214218 6.00732307 -1 10 C-3.20734913 12.03950922 -5.41343857 13.41932357 -8 15 C-8.66 14.67 -9.32 14.34 -10 14 C-9.52949219 13.40832031 -9.05898438 12.81664062 -8.57421875 12.20703125 C-3.9441876 6.33987937 -3.9441876 6.33987937 0 0 Z " fill="#6898E5" transform="translate(365,331)"/>
<path d="M0 0 C0.66 0.33 1.32 0.66 2 1 C-0.29797175 5.49603169 -1.87995148 7.28744088 -6.75 8.875 C-8.16094748 9.27097558 -9.57617455 9.65317072 -11 10 C-8.11913077 6.01110415 -5.16664294 3.59257783 -1 1 C-0.67 0.67 -0.34 0.34 0 0 Z " fill="#60A83D" transform="translate(94,318)"/>
<path d="M0 0 C4.03357494 1.80815429 6.25594914 3.51189828 8.25 7.5 C9 10 9 10 8 13 C6.66094733 11.2126038 5.32890934 9.41995047 4 7.625 C3.2575 6.62726563 2.515 5.62953125 1.75 4.6015625 C0 2 0 2 0 0 Z " fill="#5DB172" transform="translate(64,378)"/>
<path d="M0 0 C0.66 0.33 1.32 0.66 2 1 C-1.75 4 -1.75 4 -4 4 C-4.33 4.99 -4.66 5.98 -5 7 C-8.18469471 9.33544279 -11.41379775 11.34482973 -15 13 C-15 12.34 -15 11.68 -15 11 C-14.34 10.67 -13.68 10.34 -13 10 C-12.34786708 7.97536745 -12.34786708 7.97536745 -12 6 C-11.071875 5.896875 -10.14375 5.79375 -9.1875 5.6875 C-5.85530145 4.96879051 -5.10378712 4.50450848 -3 2 C-2.01 1.34 -1.02 0.68 0 0 Z " fill="#D3BE23" transform="translate(103,310)"/>
<path d="M0 0 C5.02696818 2.99831859 9.59286523 6.14375707 14 10 C13.01 10.33 12.02 10.66 11 11 C10.34 10.67 9.68 10.34 9 10 C9 9.34 9 8.68 9 8 C8.01 7.67 7.02 7.34 6 7 C6 6.34 6 5.68 6 5 C4.35 5 2.7 5 1 5 C0.67 3.35 0.34 1.7 0 0 Z " fill="#FCAB1C" transform="translate(74,169)"/>
<path d="M0 0 C1.32 0.33 2.64 0.66 4 1 C-1.445 4.96 -1.445 4.96 -7 9 C-7.33 7.68 -7.66 6.36 -8 5 C-4.93882432 2.37613513 -4.26826873 2 0 2 C0 1.34 0 0.68 0 0 Z " fill="#DD594E" transform="translate(179,137)"/>
<path d="M0 0 C0.33 0.66 0.66 1.32 1 2 C0 4 0 4 -2.4375 5.375 C-5.10961471 6.74182922 -5.10961471 6.74182922 -5.9375 9.0625 C-7 11 -7 11 -10.125 12.25 C-11.07375 12.4975 -12.0225 12.745 -13 13 C-9.0580583 8.11950075 -4.88049925 3.9419417 0 0 Z " fill="#E5695D" transform="translate(103,79)"/>
<path d="M0 0 C0.94875 0.04125 1.8975 0.0825 2.875 0.125 C1.92078192 1.27426266 0.96147955 2.41930541 0 3.5625 C-0.53367187 4.20058594 -1.06734375 4.83867187 -1.6171875 5.49609375 C-3.125 7.125 -3.125 7.125 -5.125 8.125 C-5.25 5.25 -5.25 5.25 -5.125 2.125 C-3.125 0.125 -3.125 0.125 0 0 Z " fill="#E56F66" transform="translate(351.125,132.875)"/>
<path d="M0 0 C0.99 0 1.98 0 3 0 C1.61811547 3.21043882 0.07578097 5.04936365 -2.625 7.25 C-3.57246094 8.03117188 -3.57246094 8.03117188 -4.5390625 8.828125 C-5.02117187 9.21484375 -5.50328125 9.6015625 -6 10 C-6.33 9.01 -6.66 8.02 -7 7 C-6.67 6.34 -6.34 5.68 -6 5 C-5.34 5 -4.68 5 -4 5 C-3.67 4.01 -3.34 3.02 -3 2 C-2.01 2 -1.02 2 0 2 C0 1.34 0 0.68 0 0 Z " fill="#E47266" transform="translate(361,122)"/>
<path d="M0 0 C3.63 2.31 7.26 4.62 11 7 C10.01 7.66 9.02 8.32 8 9 C7.67 8.01 7.34 7.02 7 6 C4.03 6 1.06 6 -2 6 C-1.34 4.02 -0.68 2.04 0 0 Z " fill="#DF645B" transform="translate(379,58)"/>
<path d="M0 0 C-3.40083079 1.92184541 -6.76314984 2.76917369 -10.5625 3.625 C-11.69816406 3.88539063 -12.83382813 4.14578125 -14.00390625 4.4140625 C-17 5 -17 5 -20 5 C-20 4.34 -20 3.68 -20 3 C-18.02 3 -16.04 3 -14 3 C-14 2.34 -14 1.68 -14 1 C-4.58997722 -0.14806378 -4.58997722 -0.14806378 0 0 Z " fill="#64AF7A" transform="translate(319,472)"/>
<path d="M0 0 C0.66 0.99 1.32 1.98 2 3 C1.67 3.99 1.34 4.98 1 6 C0.01 6 -0.98 6 -2 6 C-2 6.66 -2 7.32 -2 8 C-2.99 8 -3.98 8 -5 8 C-5.66 9.32 -6.32 10.64 -7 12 C-7.66 11.67 -8.32 11.34 -9 11 C-6.03 7.37 -3.06 3.74 0 0 Z " fill="#DF6760" transform="translate(84,97)"/>
<path d="M0 0 C-3.02453967 2.01635978 -5.63075348 3.03246502 -9.0625 4.1875 C-10.12597656 4.55230469 -11.18945312 4.91710937 -12.28515625 5.29296875 C-15 6 -15 6 -17 5 C-11.0909836 1.28576112 -7.07303935 -0.27737409 0 0 Z " fill="#5BAF74" transform="translate(337,466)"/>
<path d="M0 0 C3.98381075 2.16264012 6.88983545 4.71211176 10 8 C8.02 8.33 6.04 8.66 4 9 C4 8.01 4 7.02 4 6 C3.34 6 2.68 6 2 6 C2 4.68 2 3.36 2 2 C1.34 2 0.68 2 0 2 C0 1.34 0 0.68 0 0 Z " fill="#E1665F" transform="translate(394,69)"/>
<path d="M0 0 C0.99 0.33 1.98 0.66 3 1 C1.49776416 5.20626034 -1.28550034 6.73900021 -5 9 C-5 7.35 -5 5.7 -5 4 C-3.35 3.67 -1.7 3.34 0 3 C0 2.01 0 1.02 0 0 Z " fill="#5DB075" transform="translate(401,423)"/>
<path d="M0 0 C0.66 0.33 1.32 0.66 2 1 C0.5 3.5625 0.5 3.5625 -2 6 C-4.87728254 6.15374792 -7.14553142 5.61846819 -10 5 C-6.76527494 2.84351662 -3.62848922 1.38542316 0 0 Z " fill="#DB5C4E" transform="translate(169,38)"/>
<path d="M0 0 C1.32 0 2.64 0 4 0 C2.4169423 4.2742558 -0.50568404 6.26531794 -4 9 C-4 7.68 -4 6.36 -4 5 C-3.34 5 -2.68 5 -2 5 C-2 4.34 -2 3.68 -2 3 C-1.34 3 -0.68 3 0 3 C0 2.01 0 1.02 0 0 Z " fill="#E0625D" transform="translate(159,152)"/>
<path d="M0 0 C2.3125 0.1875 2.3125 0.1875 5 1 C6.8125 3.5625 6.8125 3.5625 8 6 C5.69 6 3.38 6 1 6 C0.67 4.02 0.34 2.04 0 0 Z " fill="#379F77" transform="translate(378,404)"/>
<path d="M0 0 C-2.74093665 1.8272911 -5.13825324 2.93698178 -8.1875 4.125 C-9.08855469 4.47820312 -9.98960937 4.83140625 -10.91796875 5.1953125 C-11.94857422 5.59363281 -11.94857422 5.59363281 -13 6 C-12.67 5.01 -12.34 4.02 -12 3 C-11.01 3 -10.02 3 -9 3 C-8.67 2.01 -8.34 1.02 -8 0 C-5.13822943 -1.43088528 -3.06624227 -0.59991697 0 0 Z " fill="#DE6159" transform="translate(210,124)"/>
<path d="M0 0 C1.28132812 0.00902344 2.56265625 0.01804687 3.8828125 0.02734375 C4.87023437 0.03894531 5.85765625 0.05054687 6.875 0.0625 C6.875 0.3925 6.875 0.7225 6.875 1.0625 C1.595 1.7225 -3.685 2.3825 -9.125 3.0625 C-9.125 2.4025 -9.125 1.7425 -9.125 1.0625 C-6.12186252 -0.43906874 -3.33432478 -0.03031204 0 0 Z " fill="#E06557" transform="translate(233.125,116.9375)"/>
<path d="M0 0 C5.41342681 1.14514798 7.9342948 2.34012809 11 7 C9.68 7.33 8.36 7.66 7 8 C7 7.34 7 6.68 7 6 C6.34 5.67 5.68 5.34 5 5 C3.31337542 3.35353315 1.64488294 1.68816933 0 0 Z " fill="#E25A4C" transform="translate(329,34)"/>
<path d="M0 0 C0.99 0.33 1.98 0.66 3 1 C3.66 0.835 4.32 0.67 5 0.5 C7 0 7 0 10 1 C5.05 3.475 5.05 3.475 0 6 C-0.66 5.34 -1.32 4.68 -2 4 C-1.01 4 -0.02 4 1 4 C0.67 2.68 0.34 1.36 0 0 Z " fill="#55AC6D" transform="translate(362,449)"/>
<path d="M0 0 C0.33 0.99 0.66 1.98 1 3 C1.66 3.33 2.32 3.66 3 4 C2.01 4.33 1.02 4.66 0 5 C-0.309375 5.804375 -0.61875 6.60875 -0.9375 7.4375 C-2 10 -2 10 -4.125 11.3125 C-5.053125 11.6528125 -5.053125 11.6528125 -6 12 C-4.43358249 7.69235185 -2.31663844 3.93828536 0 0 Z " fill="#DF625A" transform="translate(59,131)"/>
<path d="M0 0 C2.475 0.495 2.475 0.495 5 1 C5 1.66 5 2.32 5 3 C5.99 3 6.98 3 8 3 C8.99 4.98 9.98 6.96 11 9 C9.0625 8.1875 9.0625 8.1875 7 7 C6.67 6.01 6.34 5.02 6 4 C4.66923011 3.65657551 3.33568021 3.32380126 2 3 C1.34 2.01 0.68 1.02 0 0 Z " fill="#3C90C0" transform="translate(388,410)"/>
<path d="M0 0 C1.32 0.66 2.64 1.32 4 2 C2.02 2.99 2.02 2.99 0 4 C0 4.66 0 5.32 0 6 C-0.66 6 -1.32 6 -2 6 C-2.33 6.66 -2.66 7.32 -3 8 C-3.66 6.02 -4.32 4.04 -5 2 C-4.01 2.33 -3.02 2.66 -2 3 C-1.34 2.67 -0.68 2.34 0 2 C0 1.34 0 0.68 0 0 Z " fill="#E6C937" transform="translate(52,346)"/>
<path d="M0 0 C3.9036874 3.46994436 6.36588975 7.55224006 9 12 C6.37417256 11.629691 5.26426684 11.31016581 3.515625 9.2578125 C3.09796875 8.55398438 2.6803125 7.85015625 2.25 7.125 C1.60804688 6.07699219 1.60804688 6.07699219 0.953125 5.0078125 C0 3 0 3 0 0 Z " fill="#60B076" transform="translate(141,324)"/>
<path d="M0 0 C0.33 0.66 0.66 1.32 1 2 C4.02934491 2.65772428 4.02934491 2.65772428 7 3 C2.375 7 2.375 7 -1 7 C-0.7525 6.1028125 -0.7525 6.1028125 -0.5 5.1875 C0.1114124 2.88655664 0.1114124 2.88655664 0 0 Z " fill="#E4BE16" transform="translate(113,296)"/>
<path d="M0 0 C3.94139078 1.66751148 6.7892812 4.22710649 10 7 C7.33333333 7 4.66666667 7 2 7 C2.33 6.01 2.66 5.02 3 4 C2.01 3.34 1.02 2.68 0 2 C0 1.34 0 0.68 0 0 Z " fill="#FCAD1B" transform="translate(113,199)"/>
<path d="M0 0 C4.63708939 2.60836278 8.78744458 5.77002574 13 9 C12.01 9.33 11.02 9.66 10 10 C7.51953125 8.41796875 7.51953125 8.41796875 4.8125 6.1875 C3.91144531 5.45917969 3.01039062 4.73085937 2.08203125 3.98046875 C1.39496094 3.32691406 0.70789062 2.67335937 0 2 C0 1.34 0 0.68 0 0 Z " fill="#FDA321" transform="translate(56,155)"/>
<path d="M0 0 C0.33 0.66 0.66 1.32 1 2 C0.67 2.66 0.34 3.32 0 4 C-0.99 4 -1.98 4 -3 4 C-3.33 4.99 -3.66 5.98 -4 7 C-5.65 7 -7.3 7 -9 7 C-6.24479785 4.04070881 -3.53372712 1.96318174 0 0 Z " fill="#DD6156" transform="translate(132,57)"/>
<path d="M0 0 C0 0.66 0 1.32 0 2 C-2.81763407 4.81763407 -4.28566635 5.94608803 -8.3125 6.25 C-9.199375 6.1675 -10.08625 6.085 -11 6 C-3.8 0 -3.8 0 0 0 Z " fill="#DE6557" transform="translate(144,51)"/>
<path d="M0 0 C1.65 0 3.3 0 5 0 C2.0094833 3.33557632 -0.93184627 5.15083921 -5 7 C-5 6.34 -5 5.68 -5 5 C-5.66 4.67 -6.32 4.34 -7 4 C-3.535 3.505 -3.535 3.505 0 3 C0 2.01 0 1.02 0 0 Z " fill="#5AAC6F" transform="translate(380,440)"/>
<path d="M0 0 C0.33 0 0.66 0 1 0 C1 1.98 1 3.96 1 6 C0.34 6 -0.32 6 -1 6 C-1 7.98 -1 9.96 -1 12 C-1.99 12 -2.98 12 -4 12 C-3.52309796 10.37433394 -3.04340334 8.74948689 -2.5625 7.125 C-2.29566406 6.22007812 -2.02882812 5.31515625 -1.75390625 4.3828125 C-1 2 -1 2 0 0 Z " fill="#F2C644" transform="translate(44,160)"/>
<path d="M0 0 C1.4391134 0.28359887 2.87625518 0.57721399 4.3125 0.875 C5.11300781 1.03742188 5.91351563 1.19984375 6.73828125 1.3671875 C9 2 9 2 12 4 C11.67 4.66 11.34 5.32 11 6 C7.37 5.01 3.74 4.02 0 3 C0 2.01 0 1.02 0 0 Z " fill="#E06457" transform="translate(283,117)"/>
<path d="M0 0 C-0.6875 1.9375 -0.6875 1.9375 -2 4 C-4.4375 4.875 -4.4375 4.875 -7 5 C-7.99 4.34 -8.98 3.68 -10 3 C-8.70990357 2.49596232 -7.41786211 1.99690074 -6.125 1.5 C-5.04605469 1.08234375 -5.04605469 1.08234375 -3.9453125 0.65625 C-2 0 -2 0 0 0 Z " fill="#56AF6F" transform="translate(313,376)"/>
<path d="M0 0 C0.99 0.33 1.98 0.66 3 1 C1.60667426 4.36720387 0.0210714 5.9859524 -3 8 C-3.36923077 3.44615385 -3.36923077 3.44615385 -1.5 1.1875 C-1.005 0.795625 -0.51 0.40375 0 0 Z " fill="#E27971" transform="translate(376,106)"/>
<path d="M0 0 C0.33 0.99 0.66 1.98 1 3 C-3.29 2.67 -7.58 2.34 -12 2 C-12 1.67 -12 1.34 -12 1 C-10.56274129 0.83126522 -9.12518162 0.66509263 -7.6875 0.5 C-6.88699219 0.4071875 -6.08648437 0.314375 -5.26171875 0.21875 C-3 0 -3 0 0 0 Z " fill="#5DAF72" transform="translate(226,476)"/>
<path d="M0 0 C1.32 0 2.64 0 4 0 C4 0.66 4 1.32 4 2 C5.65 2 7.3 2 9 2 C8.67 3.32 8.34 4.64 8 6 C1.125 2.25 1.125 2.25 0 0 Z " fill="#62B57B" transform="translate(116,434)"/>
<path d="M0 0 C2.97 0.495 2.97 0.495 6 1 C6.66 2.98 7.32 4.96 8 7 C4.2047869 5.50902342 2.38957269 3.24299151 0 0 Z " fill="#6BBD7F" transform="translate(94,415)"/>
<path d="M0 0 C2.99220268 1.36370299 5.29026529 2.94908083 7.75 5.125 C8.67039062 5.93324219 8.67039062 5.93324219 9.609375 6.7578125 C10.06828125 7.16773438 10.5271875 7.57765625 11 8 C10.01 8 9.02 8 8 8 C7.34 7.34 6.68 6.68 6 6 C5.34 5.896875 4.68 5.79375 4 5.6875 C3.34 5.460625 2.68 5.23375 2 5 C0.75 2.4375 0.75 2.4375 0 0 Z " fill="#399B89" transform="translate(356,386)"/>
<path d="M0 0 C0.66 0.99 1.32 1.98 2 3 C0.35 5.64 -1.3 8.28 -3 11 C-4.33332095 8.3333581 -3.67102033 6.83319697 -3 4 C-2.01 4 -1.02 4 0 4 C0 2.68 0 1.36 0 0 Z " fill="#6897E2" transform="translate(447,364)"/>
<path d="M0 0 C1.32 0 2.64 0 4 0 C4.33 2.97 4.66 5.94 5 9 C0.57142857 3.85714286 0.57142857 3.85714286 0 0 Z " fill="#5AAD74" transform="translate(55,363)"/>
<path d="M0 0 C0.99 0.33 1.98 0.66 3 1 C0.69 3.31 -1.62 5.62 -4 8 C-4.33 6.68 -4.66 5.36 -5 4 C-4.01 4 -3.02 4 -2 4 C-1.34 2.68 -0.68 1.36 0 0 Z " fill="#6697E0" transform="translate(414,412)"/>
<path d="M0 0 C4.455 2.97 4.455 2.97 9 6 C7.68 6.33 6.36 6.66 5 7 C2.25 4.6875 2.25 4.6875 0 2 C0 1.34 0 0.68 0 0 Z " fill="#5AB475" transform="translate(174,359)"/>
<path d="M0 0 C1.11375 0.598125 2.2275 1.19625 3.375 1.8125 C4.00148438 2.14894531 4.62796875 2.48539063 5.2734375 2.83203125 C7 4 7 4 9 7 C5.9168649 5.80100302 2.93720508 4.52299523 0 3 C0 2.01 0 1.02 0 0 Z " fill="#FEA921" transform="translate(104,192)"/>
<path d="M0 0 C-1.45537568 0.83848804 -2.91440373 1.67063934 -4.375 2.5 C-5.59316406 3.19609375 -5.59316406 3.19609375 -6.8359375 3.90625 C-9 5 -9 5 -11 5 C-10.67 4.01 -10.34 3.02 -10 2 C-9.01 2 -8.02 2 -7 2 C-7 1.34 -7 0.68 -7 0 C-3.86650268 -1.04449911 -3.01031744 -0.93423645 0 0 Z " fill="#E06C67" transform="translate(196,131)"/>
<path d="M0 0 C1.32 0.66 2.64 1.32 4 2 C2.35 3.32 0.7 4.64 -1 6 C-1.66 4.68 -2.32 3.36 -3 2 C-2.01 1.34 -1.02 0.68 0 0 Z " fill="#5393D0" transform="translate(405,419)"/>
<path d="M0 0 C2.25 0.125 2.25 0.125 5 1 C7.3125 4.0625 7.3125 4.0625 9 7 C5.18315774 5.44499019 2.80804268 2.96404505 0 0 Z " fill="#39979F" transform="translate(336,371)"/>
<path d="M0 0 C0.66 0.99 1.32 1.98 2 3 C0.35 4.32 -1.3 5.64 -3 7 C-3.99 6.34 -4.98 5.68 -6 5 C-4.02 3.35 -2.04 1.7 0 0 Z " fill="#679CE8" transform="translate(343,357)"/>
<path d="M0 0 C1.15866723 4.63466892 0.70010994 7.33260039 0 12 C-0.99 12 -1.98 12 -3 12 C-2.01 8.04 -1.02 4.08 0 0 Z " fill="#F3C94D" transform="translate(37,178)"/>
<path d="M0 0 C1.32 0 2.64 0 4 0 C4 0.99 4 1.98 4 3 C3.4225 3.12375 2.845 3.2475 2.25 3.375 C-0.02335767 4.00648824 -1.9253529 4.88858191 -4 6 C-2.25 3 -2.25 3 0 0 Z " fill="#DF5B53" transform="translate(64,124)"/>
<path d="M0 0 C2.64 0 5.28 0 8 0 C8 0.66 8 1.32 8 2 C8.99 2.33 9.98 2.66 11 3 C7.59068103 4.13643966 6.99664544 3.86747764 3.8125 2.5625 C3.09707031 2.27503906 2.38164062 1.98757812 1.64453125 1.69140625 C1.10183594 1.46324219 0.55914062 1.23507813 0 1 C0 0.67 0 0.34 0 0 Z " fill="#DF7068" transform="translate(297,123)"/>
<path d="M0 0 C3.3 1.65 6.6 3.3 10 5 C6 6 6 6 4 6 C4 5.34 4 4.68 4 4 C3.34 4 2.68 4 2 4 C2 3.34 2 2.68 2 2 C1.34 2 0.68 2 0 2 C0 1.34 0 0.68 0 0 Z " fill="#E1746D" transform="translate(367,51)"/>
<path d="M0 0 C2.97 0.495 2.97 0.495 6 1 C6.33 2.65 6.66 4.3 7 6 C3.73539027 4.19587357 2.11070205 3.16605307 0 0 Z " fill="#60B075" transform="translate(104,424)"/>
<path d="M0 0 C2.0625 1.75 2.0625 1.75 4 4 C3.75 6.25 3.75 6.25 3 8 C2.34 7.67 1.68 7.34 1 7 C0.59270772 4.67843403 0.25561323 2.3431213 0 0 Z " fill="#4FA769" transform="translate(137,318)"/>
<path d="M0 0 C0.6875 1.625 0.6875 1.625 1 4 C-0.4375 7.25 -0.4375 7.25 -2 10 C-2.66 10 -3.32 10 -4 10 C-3.34 7.69 -2.68 5.38 -2 3 C-1.34 3 -0.68 3 0 3 C0 2.01 0 1.02 0 0 Z " fill="#548BE3" transform="translate(379,300)"/>
<path d="M0 0 C-1.29299694 2.88437779 -2.65941363 4.87219421 -5 7 C-5 5.02 -5 3.04 -5 1 C-3 0 -3 0 0 0 Z " fill="#DF6457" transform="translate(152,164)"/>
<path d="M0 0 C0 0.66 0 1.32 0 2 C0.66 2.33 1.32 2.66 2 3 C-3.94 3.495 -3.94 3.495 -10 4 C-6.86268382 1.90845588 -3.85464592 0 0 0 Z " fill="#DF5F57" transform="translate(181,34)"/>
<path d="M0 0 C2.64 0 5.28 0 8 0 C8.33 1.32 8.66 2.64 9 4 C6.03 3.01 3.06 2.02 0 1 C0 0.67 0 0.34 0 0 Z " fill="#6EB582" transform="translate(159,460)"/>
<path d="M0 0 C3.96 1.98 3.96 1.98 8 4 C7.67 4.66 7.34 5.32 7 6 C5.68 5.67 4.36 5.34 3 5 C3 4.34 3 3.68 3 3 C2.01 3 1.02 3 0 3 C0 2.01 0 1.02 0 0 Z " fill="#5DA972" transform="translate(184,366)"/>
<path d="M0 0 C0.33 1.32 0.66 2.64 1 4 C-1.31 4.33 -3.62 4.66 -6 5 C-4.06745228 2.9754262 -2.36841312 1.57894208 0 0 Z " fill="#64A53A" transform="translate(126,294)"/>
<path d="M0 0 C0.33 0.66 0.66 1.32 1 2 C-0.39789678 4.79579355 -2.2628997 5.59807058 -5 7 C-5.66 6.67 -6.32 6.34 -7 6 C-4.69 4.02 -2.38 2.04 0 0 Z " fill="#E27A71" transform="translate(103,79)"/>
<path d="M0 0 C0.99 0.66 1.98 1.32 3 2 C1.63016497 5.16115776 1.0109362 5.9927092 -2 8 C-2 7.01 -2 6.02 -2 5 C-1.34 5 -0.68 5 0 5 C0 3.35 0 1.7 0 0 Z " fill="#DC8C86" transform="translate(404,77)"/>
</svg>
